<svg width="172" height="172" viewBox="0 0 172 172" fill="none" xmlns="http://www.w3.org/2000/svg">
<path d="M73.7445 27.6633L13.0429 129C11.7913 131.167 11.1291 133.625 11.1221 136.127C11.1151 138.63 11.7636 141.091 13.0029 143.265C14.2423 145.44 16.0294 147.252 18.1864 148.521C20.3435 149.79 22.7953 150.473 25.2979 150.5H146.701C149.204 150.473 151.656 149.79 153.813 148.521C155.97 147.252 157.757 145.44 158.996 143.265C160.236 141.091 160.884 138.63 160.877 136.127C160.87 133.625 160.208 131.167 158.956 129L98.2545 27.6633C96.9769 25.5571 95.178 23.8157 93.0314 22.6071C90.8848 21.3986 88.463 20.7637 85.9995 20.7637C83.5361 20.7637 81.1142 21.3986 78.9676 22.6071C76.821 23.8157 75.0221 25.5571 73.7445 27.6633V27.6633Z" stroke="white" stroke-width="12" stroke-linecap="round" stroke-linejoin="round"/>
<path d="M86 64.5V93.1667" stroke="white" stroke-width="12" stroke-linecap="round" stroke-linejoin="round"/>
<path d="M86 121.833H86.0708" stroke="white" stroke-width="12" stroke-linecap="round" stroke-linejoin="round"/>
</svg>
